<?xml version="1.0" encoding="utf-8"?>
<svg version="1.1" id="Layer_1" xmlns="http://www.w3.org/2000/svg"
	xmlns:xlink="http://www.w3.org/1999/xlink" x="0px" y="0px"
	viewBox="0 0 260 260" style="enable-background:new 0 0 260 260;" xml:space="preserve">
<style type="text/css">
	.st0{fill:#FFFFFF;}
</style>
<path class="st0" d="M200,260H60c-33,0-60-27-60-60V60C0,27,27,0,60,0h140c33,0,60,27,60,60v140C260,233,233,260,200,260z"/>
<g>
	<path d="M87.3,186c-1.9,0-3.5-0.6-4.7-1.8c-1.2-1.2-1.7-2.8-1.7-4.9V86.2h-35c-1.9,0-3.3-0.5-4.4-1.6c-1-1-1.6-2.4-1.6-4
		c0-1.8,0.5-3.1,1.6-4s2.5-1.4,4.4-1.4h83c1.9,0,3.3,0.5,4.4,1.4s1.6,2.3,1.6,4c0,1.8-0.5,3.1-1.6,4.1c-1,1-2.5,1.5-4.4,1.5h-35
		v93.1c0,2.1-0.5,3.7-1.6,4.9S89.5,186,87.3,186z"/>
	<path d="M179.5,186.3c-4.9,0-9.7-0.4-14.3-1.2c-4.7-0.9-9-2-13-3.6c-4-1.6-7.6-3.5-10.8-5.9c-1.2-0.9-2.1-2-2.6-3.2
		s-0.5-2.4-0.3-3.6c0.2-1.2,0.8-2.2,1.6-3c0.8-0.9,1.7-1.3,2.9-1.4c1.2-0.1,2.4,0.2,3.7,1.1c4.7,3.3,9.7,5.8,15,7.2
		c5.3,1.5,11.3,2.3,17.9,2.3c9.3,0,16.3-1.7,20.8-5.2c4.5-3.5,6.8-8.1,6.8-13.8c0-4.7-1.6-8.3-4.9-11c-3.3-2.6-8.7-4.8-16.4-6.3
		l-16.2-3.3c-9.7-2.1-17.1-5.5-21.9-10.2c-4.8-4.8-7.2-11.1-7.2-18.9c0-4.9,1-9.3,3-13.3s4.8-7.4,8.3-10.3s7.7-5.1,12.6-6.6
		c4.9-1.6,10.3-2.3,16.2-2.3c6.5,0,12.6,0.9,18.3,2.7s10.7,4.5,15.3,8.2c1.2,0.9,1.9,2,2.3,3.2c0.4,1.2,0.5,2.3,0.2,3.4
		c-0.3,1.1-0.9,2-1.6,2.7c-0.8,0.7-1.8,1.2-3,1.2c-1.2,0.1-2.5-0.3-4-1.2c-4.1-3.1-8.5-5.4-12.9-6.8c-4.4-1.4-9.4-2.1-14.8-2.1
		c-5.5,0-10.3,0.9-14.3,2.5c-4,1.6-7.1,4-9.3,7.2s-3.3,6.9-3.3,11c0,5,1.6,9,4.6,11.8c3,2.9,8.1,5.1,15,6.4l16.2,3.4
		c10.5,2.2,18.2,5.5,23.3,9.9c5.1,4.4,7.6,10.4,7.6,18c0,4.6-0.9,8.8-2.8,12.6c-1.9,3.8-4.6,7.2-8.1,9.9s-7.8,4.8-12.8,6.3
		C191.4,185.6,185.8,186.3,179.5,186.3z"/>
</g>
</svg>